<svg xmlns="http://www.w3.org/2000/svg" viewBox="0 0 294 25.76"><defs><style>.cls-1{fill:#231815;}</style></defs><title>logo</title><g id="レイヤー_2" data-name="レイヤー 2"><g id="レイヤー_1-2" data-name="レイヤー 1"><path class="cls-1" d="M21.81,7.91a.83.83,0,0,0,0-.22,1,1,0,0,1,0-.27c0-.19-.18-.43-.55-.75a6.24,6.24,0,0,0-1.56-.9A13.53,13.53,0,0,0,17.25,5a14.22,14.22,0,0,0-3-.31,11.63,11.63,0,0,0-3.6.53A8,8,0,0,0,7.8,6.81,7,7,0,0,0,5.93,9.39a8.87,8.87,0,0,0-.66,3.52A8.07,8.07,0,0,0,6,16.45,8.79,8.79,0,0,0,8,19.14a8.47,8.47,0,0,0,2.75,1.71,9,9,0,0,0,3.13.57,12.68,12.68,0,0,0,3-.38,20,20,0,0,0,2.8-.91A9.29,9.29,0,0,0,21.72,19c.53-.41.8-.77.8-1.1v-.44a2.72,2.72,0,0,0-.05-.55l.6-.55,4.06,5.82-.54.28a2.84,2.84,0,0,0-.94-.28,3.87,3.87,0,0,0-1.43.5c-.66.33-1.49.7-2.5,1.12a20.32,20.32,0,0,1-3.51,1.07,21.19,21.19,0,0,1-4.48.44,18.19,18.19,0,0,1-5-.71,12.43,12.43,0,0,1-4.39-2.28,12.15,12.15,0,0,1-3.13-3.9A11.56,11.56,0,0,1,0,13,11.36,11.36,0,0,1,1.21,7.64,12,12,0,0,1,4.39,3.76,13.48,13.48,0,0,1,8.93,1.43,18.69,18.69,0,0,1,18,1,23.59,23.59,0,0,1,21,1.92c.88.33,1.61.63,2.19.88a3.72,3.72,0,0,0,1.27.39A.67.67,0,0,0,25,3a1.88,1.88,0,0,1,.42-.27l.66.38L22.41,8.35Z"/><path class="cls-1" d="M48.23,1a15.05,15.05,0,0,1,7.63,1.62q2.74,1.62,2.75,5.52a6.17,6.17,0,0,1-.55,2.64,6.61,6.61,0,0,1-1.46,2,7.49,7.49,0,0,1-2,1.37,11,11,0,0,1-2.25.8l5.38,7.86a3.11,3.11,0,0,0,1,.9,4.72,4.72,0,0,0,1.13.47v1H51.41v-1c.48,0,.72-.17.72-.5A3.64,3.64,0,0,0,51.3,22L47,15.49H39.33v7.85a.67.67,0,0,0,.36.64,1.49,1.49,0,0,0,.68.19v1h-7.3v-1c.66,0,1-.28,1-.83V2.8c0-.55-.33-.82-1-.82V1Zm-.11,10.44q5.39,0,5.38-3.41a2.44,2.44,0,0,0-1.29-2.17,8.07,8.07,0,0,0-4.09-.8H39.44v6.38Z"/><path class="cls-1" d="M79.1.66a20.51,20.51,0,0,1,5.68.77,13.47,13.47,0,0,1,4.64,2.31,10.91,10.91,0,0,1,3.13,3.87,12.16,12.16,0,0,1,1.16,5.46,12.21,12.21,0,0,1-1.16,5.47,10.91,10.91,0,0,1-3.13,3.87,12.52,12.52,0,0,1-4.64,2.23,23.08,23.08,0,0,1-5.68.68,23.11,23.11,0,0,1-5.69-.68,12.52,12.52,0,0,1-4.64-2.23,10.91,10.91,0,0,1-3.13-3.87,12.21,12.21,0,0,1-1.16-5.47,12.16,12.16,0,0,1,1.16-5.46,10.91,10.91,0,0,1,3.13-3.87,13.47,13.47,0,0,1,4.64-2.31A20.53,20.53,0,0,1,79.1.66Zm0,4.06a10.62,10.62,0,0,0-3.44.58,9.79,9.79,0,0,0-3,1.65,8,8,0,0,0-2.12,2.61,7.5,7.5,0,0,0-.79,3.51,7.57,7.57,0,0,0,.79,3.52,8.26,8.26,0,0,0,2.12,2.61,10,10,0,0,0,3,1.65,10.64,10.64,0,0,0,6.87,0,10,10,0,0,0,3-1.65,8.26,8.26,0,0,0,2.12-2.61,7.57,7.57,0,0,0,.79-3.52,7.5,7.5,0,0,0-.79-3.51A8,8,0,0,0,85.52,7a9.79,9.79,0,0,0-3-1.65A10.6,10.6,0,0,0,79.1,4.72Z"/><path class="cls-1" d="M100.85,24.17a2.73,2.73,0,0,0,1.2-.19.68.68,0,0,0,.33-.64V2.8a.68.68,0,0,0-.33-.63,2.59,2.59,0,0,0-1.2-.19V1h8.35V2c-1,0-1.54.27-1.54.82V23.34c0,.55.51.83,1.54.83v1h-8.35Z"/><path class="cls-1" d="M133.64,1a15.05,15.05,0,0,1,7.63,1.62Q144,4.23,144,8.13a6.17,6.17,0,0,1-.55,2.64,6.61,6.61,0,0,1-1.46,2,7.49,7.49,0,0,1-2,1.37,11,11,0,0,1-2.25.8l5.38,7.86a3.11,3.11,0,0,0,1,.9,4.72,4.72,0,0,0,1.13.47v1h-8.41v-1c.48,0,.72-.17.72-.5a3.64,3.64,0,0,0-.83-1.7l-4.34-6.48h-7.63v7.85a.67.67,0,0,0,.36.64,1.49,1.49,0,0,0,.68.19v1h-7.3v-1c.66,0,1-.28,1-.83V2.8c0-.55-.33-.82-1-.82V1Zm-.11,10.44q5.39,0,5.38-3.41a2.44,2.44,0,0,0-1.29-2.17,8,8,0,0,0-4.09-.8h-8.68v6.38Z"/><path class="cls-1" d="M173.46,6.1c0-.7-.57-1-1.7-1H158.35v5.5h8.46a5.09,5.09,0,0,0,1.38-.14c.29-.09.44-.34.44-.74h1v5.82h-1.09a.53.53,0,0,0-.44-.74,8.27,8.27,0,0,0-1.71-.14h-8v6.48h14.07a1.89,1.89,0,0,0,1.09-.3A.91.91,0,0,0,174,20h1v5.77h-1c0-.33-.14-.51-.44-.55a8.49,8.49,0,0,0-1.09-.05H152.26v-1a1,1,0,0,0,.55-.19.73.73,0,0,0,.27-.64V2.8a.72.72,0,0,0-.27-.63,1,1,0,0,0-.55-.19V1h19.5c1.13,0,1.7-.33,1.7-1h1V6.1Z"/><path class="cls-1" d="M215.18,10.42a1.23,1.23,0,0,0,0-.19.79.79,0,0,1,0-.23c0-.16-.16-.37-.47-.64a5.72,5.72,0,0,0-1.34-.77,12,12,0,0,0-2-.64,12.31,12.31,0,0,0-2.59-.25,10.21,10.21,0,0,0-3.07.44,7.05,7.05,0,0,0-2.42,1.34,5.84,5.84,0,0,0-1.59,2.21,7.43,7.43,0,0,0-.57,3,7,7,0,0,0,.64,3,7.58,7.58,0,0,0,1.66,2.3,7.06,7.06,0,0,0,2.35,1.45,7.57,7.57,0,0,0,2.68.5,10.62,10.62,0,0,0,2.58-.33,17.19,17.19,0,0,0,2.39-.78,7.72,7.72,0,0,0,1.76-1c.45-.34.68-.66.68-.94v-.37a1.57,1.57,0,0,0,0-.47l.52-.47,3.47,5-.46.24a2.53,2.53,0,0,0-.8-.24,3.25,3.25,0,0,0-1.22.42c-.57.29-1.28.61-2.14,1a17.54,17.54,0,0,1-3,.91,17.94,17.94,0,0,1-3.83.38,15.57,15.57,0,0,1-4.27-.61,10.49,10.49,0,0,1-3.75-2,10.34,10.34,0,0,1-2.68-3.33,9.91,9.91,0,0,1-1-4.63,9.78,9.78,0,0,1,1-4.6,10.44,10.44,0,0,1,2.72-3.31,11.6,11.6,0,0,1,3.88-2,15.33,15.33,0,0,1,4.48-.66,15,15,0,0,1,3.26.33,19.61,19.61,0,0,1,2.6.75c.76.28,1.38.54,1.88.75a3.17,3.17,0,0,0,1.08.33.56.56,0,0,0,.4-.14,1.92,1.92,0,0,1,.35-.23l.57.33-3.1,4.45Z"/><path class="cls-1" d="M221.67,24.31a1.37,1.37,0,0,0,.91-.54,4.1,4.1,0,0,0,.54-.82l7-15.25c.19-.44.33-.79.44-1.06a2,2,0,0,0,.17-.77q0-.29-.12-.36l-.26-.16V4.5h7.09v.85a1.17,1.17,0,0,1-.3.14c-.11,0-.17.16-.17.38a1.57,1.57,0,0,0,.21.68c.14.26.29.57.45.91l7.6,16a1.7,1.7,0,0,0,.52.61,2,2,0,0,0,.61.28v.85h-6.67v-.71a1,1,0,0,0,.5-.14.52.52,0,0,0,.25-.51,1.46,1.46,0,0,0-.09-.52c-.06-.16-.14-.36-.23-.61L238.85,20h-10l-1.31,2.54c-.13.25-.23.48-.31.68a1.67,1.67,0,0,0-.11.54c0,.25.07.41.23.47a1.94,1.94,0,0,0,.66.09v.85h-6.29Zm15.68-7.79-3.81-7.88-3.33,7.88Z"/><path class="cls-1" d="M269.48,8.64q0-.24-.33-.45A2.23,2.23,0,0,0,268,8H255.3v5h8.26a1.83,1.83,0,0,0,1-.16.85.85,0,0,0,.23-.54h.85v4.93h-.85a1,1,0,0,0-.23-.57,1.68,1.68,0,0,0-1-.18H255.3v7.18a.56.56,0,0,0,.33.54,1.65,1.65,0,0,0,.75.16v.85H249.9v-.85c.6,0,.89-.23.89-.7V6.05c0-.47-.32-.7-1-.7V4.5H268a2,2,0,0,0,1.13-.23.72.72,0,0,0,.33-.61h.84v5Z"/><path class="cls-1" d="M292.73,8.87c0-.59-.48-.89-1.45-.89H279.83v4.69h7.22a4.19,4.19,0,0,0,1.18-.12c.25-.07.37-.28.37-.63h.85v5h-.94a.45.45,0,0,0-.38-.64,6.75,6.75,0,0,0-1.45-.12h-6.85v5.54h12a1.63,1.63,0,0,0,.94-.25.81.81,0,0,0,.38-.68H294v4.92h-.84a.42.42,0,0,0-.38-.47,8.23,8.23,0,0,0-.94,0H274.61v-.85a.78.78,0,0,0,.47-.16.61.61,0,0,0,.24-.54V6.05a.61.61,0,0,0-.24-.54.78.78,0,0,0-.47-.16V4.5h16.67c1,0,1.45-.28,1.45-.84h.85V8.87Z"/></g></g></svg>